<?xml version="1.0" encoding="UTF-8" standalone="no"?>
<!-- Generator: Adobe Illustrator 24.0.0, SVG Export Plug-In . SVG Version: 6.00 Build 0)  -->

<svg
   version="1.1"
   id="Layer_1"
   x="0px"
   y="0px"
   viewBox="0 0 227 129"
   xml:space="preserve"
   sodipodi:docname="meter.svg"
   inkscape:version="1.2 (dc2aedaf03, 2022-05-15)"
   width="227"
   height="129"
   xmlns:inkscape="http://www.inkscape.org/namespaces/inkscape"
   xmlns:sodipodi="http://sodipodi.sourceforge.net/DTD/sodipodi-0.dtd"
   xmlns="http://www.w3.org/2000/svg"
   xmlns:svg="http://www.w3.org/2000/svg"><defs
   id="defs145" /><sodipodi:namedview
   id="namedview143"
   pagecolor="#505050"
   bordercolor="#eeeeee"
   borderopacity="1"
   inkscape:showpageshadow="0"
   inkscape:pageopacity="0"
   inkscape:pagecheckerboard="0"
   inkscape:deskcolor="#505050"
   showgrid="false"
   inkscape:zoom="2.2262815"
   inkscape:cx="134.75385"
   inkscape:cy="157.21282"
   inkscape:window-width="1920"
   inkscape:window-height="1009"
   inkscape:window-x="1912"
   inkscape:window-y="-8"
   inkscape:window-maximized="1"
   inkscape:current-layer="Layer_1" />
<style
   type="text/css"
   id="style78">
	.st0{fill:#D4D853;}
	.st1{fill:#3A312A;}
	.st2{fill:#87796F;}
	.st3{fill:#8AC5DC;}
	.st4{fill:#EB6E7A;}
	.st5{fill:#F4E0C4;}
	.st6{fill:#D7E057;}
	.st7{fill:#8AC6DD;}
	.st8{fill:#6CA8BF;}
	.st9{fill:#ED6E7A;}
	.st10{fill:#D34E5C;}
	.st11{fill:#B9C239;}
	.st12{fill:#F3DEC3;}
	.st13{fill:#695B51;}
	.st14{fill:#F0DCC1;}
	.st15{fill:#DECAAD;}
	.st16{fill:#F6E2C6;}
	.st17{fill:#D6DF58;}
	.st18{fill:#EF6D7A;}
	.st19{fill:#6CA6BE;}
	.st20{fill:#F16C7A;}
	.st21{fill:#FAE6CA;}
	.st22{fill:#EA6D7A;}
	.st23{fill:#D4D752;}
	.st24{fill:#89C4DB;}
	.st25{fill:#D3D650;}
	.st26{fill:#8AC2D9;}
	.st27{fill:#FCE8CB;}
	.st28{fill-rule:evenodd;clip-rule:evenodd;fill:#FAE6CA;}
	.st29{fill:#F59689;}
	.st30{fill:#F8E4C8;}
</style>
<g
   id="g140"
   transform="translate(-2.4491795,-122.626)">
	
	
	
	
	
	
	<rect
   x="34.404335"
   y="170.38618"
   class="st2"
   width="163.86"
   height="35"
   id="rect92" />
	<path
   class="st1"
   d="M 198.26333,206.88618 H 34.403333 c -0.828,0 -1.5,-0.672 -1.5,-1.5 v -35 c 0,-0.828 0.672,-1.5 1.5,-1.5 H 198.26333 c 0.828,0 1.5,0.672 1.5,1.5 v 35 c 0,0.829 -0.672,1.5 -1.5,1.5 z m -162.359997,-3 H 196.76333 v -32 H 35.903333 Z"
   id="path94" />
	<path
   class="st6"
   d="m 213.01333,152.79618 v 0 c 8.146,0 14.75,6.604 14.75,14.75 v 40.72 c 0,8.146 -6.604,14.75 -14.75,14.75 v 0 c -8.146,0 -14.75,-6.604 -14.75,-14.75 v -40.72 c 0,-8.146 6.604,-14.75 14.75,-14.75 z"
   id="path96" />
	<path
   class="st1"
   d="m 213.01333,224.51618 c -8.96,0 -16.25,-7.29 -16.25,-16.25 v -40.721 c 0,-8.96 7.29,-16.25 16.25,-16.25 8.96,0 16.25,7.29 16.25,16.25 v 40.721 c 0,8.96 -7.29,16.25 -16.25,16.25 z m 0,-70.22 c -7.306,0 -13.25,5.944 -13.25,13.25 v 40.721 c 0,7.306 5.944,13.25 13.25,13.25 7.306,0 13.25,-5.944 13.25,-13.25 v -40.721 c 0,-7.306 -5.944,-13.25 -13.25,-13.25 z"
   id="path98" />
	<path
   class="st6"
   d="m 4.9023332,192.71418 v 15.552 c 0,8.146 6.6039998,14.75 14.7499998,14.75 v 0 c 8.146,0 14.75,-6.604 14.75,-14.75 v -40.72 c 0,-8.146 -6.604,-14.75 -14.75,-14.75 v 0 c -8.146,0 -14.7499998,6.604 -14.7499998,14.75 v 11.219 z"
   id="path100" />
	<path
   class="st1"
   d="m 19.652333,224.51618 c -8.96,0 -16.2499998,-7.29 -16.2499998,-16.25 v -15.551 c 0,-0.828 0.672,-1.5 1.5,-1.5 0.828,0 1.5,0.672 1.5,1.5 v 15.552 c 0,7.306 5.9439998,13.25 13.2499998,13.25 7.306,0 13.25,-5.944 13.25,-13.25 v -40.721 c 0,-7.306 -5.944,-13.25 -13.25,-13.25 -7.306,0 -13.2499998,5.944 -13.2499998,13.25 v 11.22 c 0,34.5749 -0.830809,12.29901 -1.658809,12.29901 -0.828,0 -1.341191,14.73246 -1.341191,-12.29901 v -11.22 c 0,-8.96 7.2899998,-16.25 16.2499998,-16.25 8.96,0 16.25,7.29 16.25,16.25 v 40.721 c 0,8.959 -7.29,16.249 -16.25,16.249 z"
   id="path102"
   sodipodi:nodetypes="sssssssssssssssssss" />
	<circle
   class="st2"
   cx="116.12434"
   cy="187.90619"
   r="62.5"
   id="circle104" />
	<path
   class="st1"
   d="m 116.12433,251.90718 c -35.289997,0 -63.999997,-28.71 -63.999997,-64 0,-35.29 28.71,-64 63.999997,-64 35.29,0 64,28.71 64,64 0,35.29 -28.71,64 -64,64 z m 0,-125 c -33.635997,0 -60.999997,27.364 -60.999997,61 0,33.636 27.364,61 60.999997,61 33.636,0 61,-27.364 61,-61 0,-33.636 -27.364,-61 -61,-61 z"
   id="path106" />
	<path
   class="st21"
   d="m 109.15333,134.87318 c -26.250997,3.418 -46.528997,25.85 -46.528997,53.033 0,29.547 23.953,53.5 53.499997,53.5 29.547,0 53.5,-23.953 53.5,-53.5 0,-27.356 -20.537,-49.901 -47.031,-53.097 z"
   id="path108" />
	<path
   class="st1"
   d="m 116.12433,242.90718 c -30.326997,0 -54.999997,-24.673 -54.999997,-55 0,-27.531 20.565,-50.97 47.835997,-54.521 0.817,-0.114 1.573,0.473 1.681,1.294 0.108,0.821 -0.472,1.574 -1.294,1.681 -25.780997,3.357 -45.222997,25.517 -45.222997,51.546 0,28.673 23.327,52 51.999997,52 28.673,0 52,-23.327 52,-52 0,-26.277 -19.651,-48.465 -45.711,-51.608 -0.822,-0.1 -1.409,-0.847 -1.31,-1.669 0.1,-0.823 0.847,-1.405 1.669,-1.31 27.564,3.325 48.352,26.793 48.352,54.587 0,30.327 -24.673,55 -55,55 z"
   id="path110" />
	<path
   class="st7"
   d="M 147.20833,175.60918 H 85.039333 c -2.301,0 -4.166,-1.865 -4.166,-4.166 v -6.669 c 0,-2.301 1.865,-4.166 4.166,-4.166 h 62.168997 c 2.301,0 4.166,1.865 4.166,4.166 v 6.669 c 0,2.301 -1.865,4.166 -4.166,4.166 z"
   id="path112" />
	<path
   class="st1"
   d="M 147.20833,177.10918 H 85.039333 c -3.124,0 -5.665,-2.542 -5.665,-5.666 v -6.668 c 0,-3.124 2.541,-5.666 5.665,-5.666 h 62.168997 c 3.124,0 5.666,2.542 5.666,5.666 v 6.668 c 0,3.124 -2.542,5.666 -5.666,5.666 z m -62.168997,-15 c -1.47,0 -2.665,1.196 -2.665,2.666 v 6.668 c 0,1.47 1.195,2.666 2.665,2.666 h 62.168997 c 1.47,0 2.666,-1.196 2.666,-2.666 v -6.668 c 0,-1.47 -1.196,-2.666 -2.666,-2.666 z"
   id="path114" />
	<circle
   class="st4"
   cx="135.26733"
   cy="201.10918"
   r="13.856"
   id="circle116" />
	<path
   class="st1"
   d="m 135.26733,216.46518 c -8.468,0 -15.357,-6.889 -15.357,-15.357 0,-8.468 6.889,-15.356 15.357,-15.356 8.468,0 15.356,6.889 15.356,15.356 10e-4,8.469 -6.888,15.357 -15.356,15.357 z m 0,-27.712 c -6.814,0 -12.357,5.543 -12.357,12.356 0,6.814 5.543,12.357 12.357,12.357 6.813,0 12.356,-5.543 12.356,-12.357 10e-4,-6.813 -5.542,-12.356 -12.356,-12.356 z"
   id="path118" />
	
	
	<path
   class="st1"
   d="m 90.624333,177.10918 c -0.828,0 -1.5,-0.672 -1.5,-1.5 v -15 c 0,-0.828 0.672,-1.5 1.5,-1.5 0.828,0 1.5,0.672 1.5,1.5 v 15 c 0,0.828 -0.672,1.5 -1.5,1.5 z"
   id="path124" />
	<path
   class="st1"
   d="m 90.624333,177.10918 c -0.828,0 -1.5,-0.672 -1.5,-1.5 v -15 c 0,-0.828 0.672,-1.5 1.5,-1.5 0.828,0 1.5,0.672 1.5,1.5 v 15 c 0,0.828 -0.672,1.5 -1.5,1.5 z"
   id="path126" />
	<path
   class="st1"
   d="m 100.82433,177.10918 c -0.827997,0 -1.499997,-0.672 -1.499997,-1.5 v -15 c 0,-0.828 0.672,-1.5 1.499997,-1.5 0.828,0 1.5,0.672 1.5,1.5 v 15 c 0,0.828 -0.672,1.5 -1.5,1.5 z"
   id="path128" />
	<path
   class="st1"
   d="m 111.02333,177.10918 c -0.828,0 -1.5,-0.672 -1.5,-1.5 v -15 c 0,-0.828 0.672,-1.5 1.5,-1.5 0.828,0 1.5,0.672 1.5,1.5 v 15 c 0,0.828 -0.672,1.5 -1.5,1.5 z"
   id="path130" />
	<path
   class="st1"
   d="m 121.22333,177.10918 c -0.828,0 -1.5,-0.672 -1.5,-1.5 v -15 c 0,-0.828 0.672,-1.5 1.5,-1.5 0.828,0 1.5,0.672 1.5,1.5 v 15 c 0,0.828 -0.672,1.5 -1.5,1.5 z"
   id="path132" />
	<path
   class="st1"
   d="m 131.42333,177.10918 c -0.828,0 -1.5,-0.672 -1.5,-1.5 v -15 c 0,-0.828 0.672,-1.5 1.5,-1.5 0.828,0 1.5,0.672 1.5,1.5 v 15 c 0,0.828 -0.671,1.5 -1.5,1.5 z"
   id="path134" />
	<path
   class="st1"
   d="m 141.62433,177.10918 c -0.828,0 -1.5,-0.672 -1.5,-1.5 v -15 c 0,-0.828 0.672,-1.5 1.5,-1.5 0.828,0 1.5,0.672 1.5,1.5 v 15 c 0,0.828 -0.672,1.5 -1.5,1.5 z"
   id="path136" />
	<path
   class="st11"
   d="m 226.26133,167.54518 v 40.72 c 0,7.31 -5.94,13.25 -13.25,13.25 -2.78,0 -5.36,-0.86 -7.49,-2.34 3.46,-2.39 5.74,-6.39 5.74,-10.91 v -40.72 c 0,-4.52 -2.28,-8.52 -5.74,-10.91 2.13,-1.48 4.71,-2.34 7.49,-2.34 7.31,0 13.25,5.94 13.25,13.25 z"
   id="path138" />
<path
   class="st11"
   d="m 32.828977,167.56547 v 40.72 c 0,7.31 -5.94,13.25 -13.25,13.25 -2.78,0 -5.36,-0.86 -7.49,-2.34 3.46,-2.39 5.74,-6.39 5.74,-10.91 v -40.72 c 0,-4.52 -2.28,-8.52 -5.74,-10.91 2.13,-1.48 4.71,-2.34 7.49,-2.34 7.31,0 13.25,5.94 13.25,13.25 z"
   id="path138-4"
   style="fill:#b9c239" /></g>
</svg>
