<?xml version="1.0" encoding="UTF-8" standalone="no"?>
<!-- Created with Inkscape (http://www.inkscape.org/) -->

<svg
        width="64.0px"
        height="64.0px"
        viewBox="0 0 64.0 64.0"
        version="1.1"
        id="SVGRoot"
        xmlns:inkscape="http://www.inkscape.org/namespaces/inkscape"
        xmlns:sodipodi="http://sodipodi.sourceforge.net/DTD/sodipodi-0.dtd"
        xmlns="http://www.w3.org/2000/svg"
>
    <sodipodi:namedview
            id="namedview590"
            pagecolor="#505050"
            bordercolor="#eeeeee"
            borderopacity="1"
            inkscape:showpageshadow="0"
            inkscape:pageopacity="0"
            inkscape:pagecheckerboard="0"
            inkscape:deskcolor="#505050"
            inkscape:document-units="px"
            showgrid="true"
            inkscape:zoom="7.2407734"
            inkscape:cx="-13.258252"
            inkscape:cy="18.782524"
            inkscape:window-width="1920"
            inkscape:window-height="1009"
            inkscape:window-x="1912"
            inkscape:window-y="-8"
            inkscape:window-maximized="1"
            inkscape:current-layer="layer1">
        <inkscape:grid
                type="xygrid"
                id="grid596"/>
    </sodipodi:namedview>
    <defs
            id="defs585"/>
    <g
            inkscape:label="Ebene 1"
            inkscape:groupmode="layer"
            id="layer1">
        <polygon
                class="st22"
                points="105.324,171.462 105.324,179.719 112.065,179.719 112.065,171.462 119.215,175.59 122.586,169.753 115.435,165.624 122.586,161.496 119.215,155.658 112.065,159.786 112.065,151.529 105.324,151.529 105.324,159.786 98.173,155.658 94.803,161.496 101.953,165.624 94.803,169.753 98.173,175.59 "
                id="polygon120"
                transform="matrix(2.0229302,0,0,1.9909117,-187.7015,-297.69536)"
                style="fill:#ea6d7a"/>
        <path
                class="st1"
                d="M 38.996158,63.518055 H 25.361609 c -1.674987,0 -3.034396,-1.347452 -3.034396,-3.007706 V 49.163275 l -9.914381,5.67454 c -0.699934,0.397017 -1.527312,0.505294 -2.304118,0.30077 C 9.3319091,54.930051 8.668388,54.428766 8.2678478,53.736994 L 1.450573,42.031001 C 0.61307986,40.591312 1.1086978,38.752601 2.5611617,37.922474 L 12.47352,32.247934 2.5611617,26.5754 C 1.1086978,25.745273 0.61307986,23.906562 1.450573,22.466873 L 8.2678478,10.760879 C 9.1053409,9.3191851 10.962391,8.8299316 12.412832,9.6600585 l 9.914381,5.6725345 V 3.9855191 c 0,-1.6602539 1.359409,-3.00770643 3.034396,-3.00770643 h 13.634549 c 1.674987,0 3.034396,1.34745253 3.034396,3.00770643 V 15.332593 l 9.914381,-5.6725345 c 1.450441,-0.8301269 3.307491,-0.3408734 4.144984,1.1008205 l 6.817275,11.705994 c 0.837493,1.439689 0.341875,3.2784 -1.110589,4.108527 l -9.912358,5.672534 9.912358,5.67454 c 1.452464,0.830127 1.948082,2.668838 1.110589,4.108527 l -6.817275,11.705993 c -0.40054,0.691772 -1.064061,1.195062 -1.840867,1.401591 -0.780851,0.204524 -1.606206,0.09625 -2.304117,-0.30077 l -9.914381,-5.67454 v 11.347074 c 0,1.660254 -1.357386,3.007706 -3.034396,3.007706 z M 28.396004,57.502642 h 7.565759 V 43.953928 c 0,-1.074754 0.578558,-2.067297 1.517198,-2.604674 0.940662,-0.537377 2.093733,-0.537377 3.034395,0 l 11.840211,6.77536 3.782879,-6.496646 -11.838187,-6.77536 c -0.93864,-0.537377 -1.517198,-1.52992 -1.517198,-2.604674 0,-1.074753 0.578558,-2.067297 1.517198,-2.604673 l 11.838187,-6.773355 -3.782879,-6.496647 -11.840211,6.773356 c -0.940662,0.535371 -2.093733,0.535371 -3.034395,0 -0.93864,-0.537377 -1.517198,-1.52992 -1.517198,-2.604674 V 6.9932255 H 28.396004 V 20.541941 c 0,1.074754 -0.578558,2.067297 -1.517198,2.604674 -0.940662,0.535371 -2.093732,0.535371 -3.034395,0 L 12.0042,16.373259 8.2213204,22.869906 20.059508,29.643261 c 0.93864,0.537376 1.517198,1.52992 1.517198,2.604673 0,1.074754 -0.578558,2.067297 -1.517198,2.604674 l -11.8381876,6.77536 3.7828796,6.496646 11.840211,-6.77536 c 0.940663,-0.537377 2.093733,-0.537377 3.034395,0 0.93864,0.537377 1.517198,1.52992 1.517198,2.604674 z"
                id="path122"
                style="fill:#3a312a;stroke-width:2.01401"/>
    </g>
</svg>
